<?xml version="1.0" encoding="UTF-8" standalone="no"?>
<svg
   xmlns:dc="http://purl.org/dc/elements/1.1/"
   xmlns:cc="http://creativecommons.org/ns#"
   xmlns:rdf="http://www.w3.org/1999/02/22-rdf-syntax-ns#"
   xmlns:svg="http://www.w3.org/2000/svg"
   xmlns="http://www.w3.org/2000/svg"
   xmlns:sodipodi="http://sodipodi.sourceforge.net/DTD/sodipodi-0.dtd"
   xmlns:inkscape="http://www.inkscape.org/namespaces/inkscape"
   sodipodi:docname="DENSITY.svg"
   inkscape:version="1.0 (4035a4fb49, 2020-05-01)"
   id="svg8"
   version="1.1"
   viewBox="0 0 100.1811 100.1811"
   height="100.1811"
   width="100.1811">
  <defs
     id="defs2" />
  <sodipodi:namedview
     inkscape:window-maximized="1"
     inkscape:window-y="-9"
     inkscape:window-x="-9"
     inkscape:window-height="1005"
     inkscape:window-width="1920"
     scale-x="1"
     units="px"
     showgrid="false"
     inkscape:document-rotation="0"
     inkscape:current-layer="g873"
     inkscape:document-units="px"
     inkscape:cy="56.495732"
     inkscape:cx="72.106964"
     inkscape:zoom="6.6679245"
     inkscape:pageshadow="2"
     inkscape:pageopacity="0.0"
     borderopacity="1.0"
     bordercolor="#666666"
     pagecolor="#ffffff"
     id="base" />
  <metadata
     id="metadata5">
    <rdf:RDF>
      <cc:Work
         rdf:about="">
        <dc:format>image/svg+xml</dc:format>
        <dc:type
           rdf:resource="http://purl.org/dc/dcmitype/StillImage" />
        <dc:title />
      </cc:Work>
    </rdf:RDF>
  </metadata>
  <g
     id="layer1"
     inkscape:groupmode="layer"
     inkscape:label="Calque 1">
    <g
       id="g873"
       transform="translate(2.1428571,-3.0357143)">
      <path
         sodipodi:nodetypes="cccc"
         id="path1406-7"
         d="m 38.767455,99.978605 c 2.260401,-8.371013 3.594574,-18.717549 8.827305,-18.586424 4.632802,-0.01581 6.650117,9.912647 8.922224,18.872369 h -0.03164"
         style="fill:#000000;fill-opacity:1;stroke:none;stroke-width:1;stroke-linecap:butt;stroke-linejoin:miter;stroke-miterlimit:4;stroke-dasharray:none;stroke-opacity:1" />
      <path
         sodipodi:open="true"
         transform="matrix(-0.86130275,0.50809209,-0.55629336,-0.83098598,0,0)"
         d="m 9.2563858,-92.67617 a 4.8236265,4.693253 0 0 1 -4.8214016,4.693252 4.8236265,4.693253 0 0 1 -4.82584938,-4.688923 4.8236265,4.693253 0 0 1 4.81694978,-4.697578 4.8236265,4.693253 0 0 1 4.830293,4.68459"
         sodipodi:arc-type="arc"
         sodipodi:end="6.2813403"
         sodipodi:start="0"
         sodipodi:ry="4.693253"
         sodipodi:rx="4.8236265"
         sodipodi:cy="-92.67617"
         sodipodi:cx="4.4327593"
         sodipodi:type="arc"
         id="path1410-7"
         style="fill:#000000;fill-opacity:1;stroke:none;stroke-width:1.00081;stroke-linecap:square;stroke-miterlimit:4;stroke-dasharray:none;stroke-opacity:1" />
      <path
         sodipodi:nodetypes="cccc"
         id="path1406-7-7-5"
         d="m -1.1101087,63.316741 c 2.260401,-8.371013 3.594574,-18.717548 8.827305,-18.586423 4.6328027,-0.01581 6.6501177,9.912646 8.9222247,18.872369 h -0.03164"
         style="fill:#000000;fill-opacity:1;stroke:none;stroke-width:1;stroke-linecap:butt;stroke-linejoin:miter;stroke-miterlimit:4;stroke-dasharray:none;stroke-opacity:1" />
      <path
         sodipodi:open="true"
         transform="matrix(-0.86130275,0.50809209,-0.55629336,-0.83098598,0,0)"
         d="m 21.324765,-40.319096 a 4.8236265,4.693253 0 0 1 -4.821401,4.693253 4.8236265,4.693253 0 0 1 -4.82585,-4.688923 4.8236265,4.693253 0 0 1 4.81695,-4.697578 4.8236265,4.693253 0 0 1 4.830293,4.684589"
         sodipodi:arc-type="arc"
         sodipodi:end="6.2813403"
         sodipodi:start="0"
         sodipodi:ry="4.693253"
         sodipodi:rx="4.8236265"
         sodipodi:cy="-40.319096"
         sodipodi:cx="16.501139"
         sodipodi:type="arc"
         id="path1410-7-5-5"
         style="fill:#000000;fill-opacity:1;stroke:none;stroke-width:1.00081;stroke-linecap:square;stroke-miterlimit:4;stroke-dasharray:none;stroke-opacity:1" />
      <path
         style="fill:#000000;fill-opacity:1;stroke:none;stroke-width:1;stroke-linecap:butt;stroke-linejoin:miter;stroke-miterlimit:4;stroke-dasharray:none;stroke-opacity:1"
         d="m 18.354178,53.495311 c 2.260401,-8.371013 3.594574,-18.717548 8.827305,-18.586423 4.632802,-0.01581 6.650117,9.912646 8.922224,18.872369 h -0.03164"
         id="path1406-7-7-5-4"
         sodipodi:nodetypes="cccc" />
      <path
         style="fill:#000000;fill-opacity:1;stroke:none;stroke-width:1.00081;stroke-linecap:square;stroke-miterlimit:4;stroke-dasharray:none;stroke-opacity:1"
         id="path1410-7-5-5-5"
         sodipodi:type="arc"
         sodipodi:cx="-5.1721449"
         sodipodi:cy="-41.751846"
         sodipodi:rx="4.8236265"
         sodipodi:ry="4.693253"
         sodipodi:start="0"
         sodipodi:end="6.2813403"
         sodipodi:arc-type="arc"
         d="m -0.34851837,-41.751846 a 4.8236265,4.693253 0 0 1 -4.82140163,4.693252 4.8236265,4.693253 0 0 1 -4.8258494,-4.688923 4.8236265,4.693253 0 0 1 4.8169498,-4.697578 4.8236265,4.693253 0 0 1 4.83029302,4.68459"
         transform="matrix(-0.86130275,0.50809209,-0.55629336,-0.83098598,0,0)"
         sodipodi:open="true" />
      <path
         sodipodi:nodetypes="cccc"
         id="path1406-7-7-5-4-0"
         d="m 63.188137,33.938251 c 2.260401,-8.371013 3.594574,-18.717548 8.827305,-18.586423 4.632802,-0.01581 6.650117,9.912646 8.922224,18.872369 h -0.03164"
         style="fill:#000000;fill-opacity:1;stroke:none;stroke-width:1;stroke-linecap:butt;stroke-linejoin:miter;stroke-miterlimit:4;stroke-dasharray:none;stroke-opacity:1" />
      <path
         sodipodi:open="true"
         transform="matrix(-0.86130275,0.50809209,-0.55629336,-0.83098598,0,0)"
         d="m -48.562539,-47.696716 a 4.8236265,4.693253 0 0 1 -4.821402,4.693252 4.8236265,4.693253 0 0 1 -4.825849,-4.688923 4.8236265,4.693253 0 0 1 4.81695,-4.697578 4.8236265,4.693253 0 0 1 4.830293,4.68459"
         sodipodi:arc-type="arc"
         sodipodi:end="6.2813403"
         sodipodi:start="0"
         sodipodi:ry="4.693253"
         sodipodi:rx="4.8236265"
         sodipodi:cy="-47.696716"
         sodipodi:cx="-53.386166"
         sodipodi:type="arc"
         id="path1410-7-5-5-5-0"
         style="fill:#000000;fill-opacity:1;stroke:none;stroke-width:1.00081;stroke-linecap:square;stroke-miterlimit:4;stroke-dasharray:none;stroke-opacity:1" />
      <path
         style="fill:#000000;fill-opacity:1;stroke:none;stroke-width:1;stroke-linecap:butt;stroke-linejoin:miter;stroke-miterlimit:4;stroke-dasharray:none;stroke-opacity:1"
         d="m 45.866709,46.616822 c 2.260401,-8.371013 3.594574,-18.717548 8.827305,-18.586423 4.632802,-0.01581 6.650117,9.912646 8.922224,18.872369 h -0.03164"
         id="path1406-7-7-5-4-0-1"
         sodipodi:nodetypes="cccc" />
      <path
         style="fill:#000000;fill-opacity:1;stroke:none;stroke-width:1.00081;stroke-linecap:square;stroke-miterlimit:4;stroke-dasharray:none;stroke-opacity:1"
         id="path1410-7-5-5-5-0-3"
         sodipodi:type="arc"
         sodipodi:cx="-31.90447"
         sodipodi:cy="-49.819366"
         sodipodi:rx="4.8236265"
         sodipodi:ry="4.693253"
         sodipodi:start="0"
         sodipodi:end="6.2813403"
         sodipodi:arc-type="arc"
         d="m -27.080844,-49.819366 a 4.8236265,4.693253 0 0 1 -4.821402,4.693252 4.8236265,4.693253 0 0 1 -4.825849,-4.688923 4.8236265,4.693253 0 0 1 4.81695,-4.697578 4.8236265,4.693253 0 0 1 4.830293,4.684589"
         transform="matrix(-0.86130275,0.50809209,-0.55629336,-0.83098598,0,0)"
         sodipodi:open="true" />
      <path
         sodipodi:nodetypes="cccc"
         id="path1406-7-7-5-4-0-1-0"
         d="M 9.0809947,39.116822 C 11.341396,30.745809 12.675569,20.399275 17.9083,20.530399 c 4.632802,-0.01581 6.650117,9.912646 8.922224,18.872369 h -0.03164"
         style="fill:#000000;fill-opacity:1;stroke:none;stroke-width:1;stroke-linecap:butt;stroke-linejoin:miter;stroke-miterlimit:4;stroke-dasharray:none;stroke-opacity:1" />
      <path
         sodipodi:open="true"
         transform="matrix(-0.86130275,0.50809209,-0.55629336,-0.83098598,0,0)"
         d="m -0.64176464,-24.628223 a 4.8236265,4.693253 0 0 1 -4.82140166,4.693252 4.8236265,4.693253 0 0 1 -4.8258497,-4.688923 4.8236265,4.693253 0 0 1 4.8169501,-4.697578 4.8236265,4.693253 0 0 1 4.83029305,4.68459"
         sodipodi:arc-type="arc"
         sodipodi:end="6.2813403"
         sodipodi:start="0"
         sodipodi:ry="4.693253"
         sodipodi:rx="4.8236265"
         sodipodi:cy="-24.628223"
         sodipodi:cx="-5.4653912"
         sodipodi:type="arc"
         id="path1410-7-5-5-5-0-3-1"
         style="fill:#000000;fill-opacity:1;stroke:none;stroke-width:1.00081;stroke-linecap:square;stroke-miterlimit:4;stroke-dasharray:none;stroke-opacity:1" />
      <path
         style="fill:#000000;fill-opacity:1;stroke:none;stroke-width:1;stroke-linecap:butt;stroke-linejoin:miter;stroke-miterlimit:4;stroke-dasharray:none;stroke-opacity:1"
         d="m 28.188137,33.045393 c 2.260401,-8.371013 3.594574,-18.717547 8.827305,-18.586423 4.632802,-0.01581 6.650117,9.912646 8.922224,18.872369 h -0.03164"
         id="path1406-7-7-5-4-0-1-0-3"
         sodipodi:nodetypes="cccc" />
      <path
         style="fill:#000000;fill-opacity:1;stroke:#000000;stroke-width:1.00081;stroke-linecap:square;stroke-miterlimit:4;stroke-dasharray:none;stroke-opacity:1"
         id="path1410-7-5-5-5-0-3-1-2"
         sodipodi:type="arc"
         sodipodi:cx="-24.751921"
         sodipodi:cy="-29.114347"
         sodipodi:rx="4.8236265"
         sodipodi:ry="4.693253"
         sodipodi:start="0"
         sodipodi:end="6.2813403"
         sodipodi:arc-type="arc"
         d="m -19.928294,-29.114347 a 4.8236265,4.693253 0 0 1 -4.821402,4.693252 4.8236265,4.693253 0 0 1 -4.825849,-4.688923 4.8236265,4.693253 0 0 1 4.81695,-4.697578 4.8236265,4.693253 0 0 1 4.830293,4.684589"
         transform="matrix(-0.86130275,0.50809209,-0.55629336,-0.83098598,0,0)"
         sodipodi:open="true" />
      <path
         style="fill:#000000;fill-opacity:1;stroke:none;stroke-width:1;stroke-linecap:butt;stroke-linejoin:miter;stroke-miterlimit:4;stroke-dasharray:none;stroke-opacity:1"
         d="m 74.616707,91.438251 c 2.260402,-8.371014 3.594575,-18.717548 8.827306,-18.586424 4.632802,-0.01581 6.650117,9.912646 8.922224,18.872374 h -0.03164"
         id="path1406-7-7-5-4-0-1-0-3-5-1"
         sodipodi:nodetypes="cccc" />
      <path
         style="fill:#000000;fill-opacity:1;stroke:none;stroke-width:1.00081;stroke-linecap:square;stroke-miterlimit:4;stroke-dasharray:none;stroke-opacity:1"
         id="path1410-7-5-5-5-0-3-1-2-3-7"
         sodipodi:type="arc"
         sodipodi:cx="-30.859755"
         sodipodi:cy="-103.11824"
         sodipodi:rx="4.8236265"
         sodipodi:ry="4.693253"
         sodipodi:start="0"
         sodipodi:end="6.2813403"
         sodipodi:arc-type="arc"
         d="m -26.036128,-103.11824 a 4.8236265,4.693253 0 0 1 -4.821402,4.693252 4.8236265,4.693253 0 0 1 -4.825849,-4.688922 4.8236265,4.693253 0 0 1 4.81695,-4.69758 4.8236265,4.693253 0 0 1 4.830293,4.68459"
         transform="matrix(-0.86130275,0.50809209,-0.55629336,-0.83098598,0,0)"
         sodipodi:open="true" />
    </g>
  </g>
</svg>
