<?xml version="1.0" encoding="UTF-8" standalone="no"?>
<svg
   xmlns:dc="http://purl.org/dc/elements/1.1/"
   xmlns:cc="http://creativecommons.org/ns#"
   xmlns:rdf="http://www.w3.org/1999/02/22-rdf-syntax-ns#"
   xmlns:svg="http://www.w3.org/2000/svg"
   xmlns="http://www.w3.org/2000/svg"
   xmlns:sodipodi="http://sodipodi.sourceforge.net/DTD/sodipodi-0.dtd"
   xmlns:inkscape="http://www.inkscape.org/namespaces/inkscape"
   width="100.1811"
   height="100.1811"
   viewBox="0 0 100.1811 100.1811"
   version="1.1"
   id="svg8"
   inkscape:version="1.0 (4035a4fb49, 2020-05-01)"
   sodipodi:docname="TEMPERATURE.svg">
  <defs
     id="defs2" />
  <sodipodi:namedview
     id="base"
     pagecolor="#ffffff"
     bordercolor="#666666"
     borderopacity="1.0"
     inkscape:pageopacity="0.0"
     inkscape:pageshadow="2"
     inkscape:zoom="7.9195959"
     inkscape:cx="19.312368"
     inkscape:cy="65.454157"
     inkscape:document-units="px"
     inkscape:current-layer="g873"
     inkscape:document-rotation="0"
     showgrid="false"
     units="px"
     scale-x="1"
     inkscape:window-width="1920"
     inkscape:window-height="1005"
     inkscape:window-x="-9"
     inkscape:window-y="-9"
     inkscape:window-maximized="1" />
  <metadata
     id="metadata5">
    <rdf:RDF>
      <cc:Work
         rdf:about="">
        <dc:format>image/svg+xml</dc:format>
        <dc:type
           rdf:resource="http://purl.org/dc/dcmitype/StillImage" />
        <dc:title />
      </cc:Work>
    </rdf:RDF>
  </metadata>
  <g
     inkscape:label="Calque 1"
     inkscape:groupmode="layer"
     id="layer1">
    <g
       transform="translate(2.1428571,-3.0357143)"
       id="g873">
      <path
         style="fill:#000000;fill-opacity:1;stroke:#000000;stroke-width:1;stroke-linecap:butt;stroke-linejoin:miter;stroke-miterlimit:4;stroke-dasharray:none;stroke-opacity:1"
         d="m 51.949317,21.484425 -0.06348,57.96982 c 2.686681,1.684369 7.742456,4.790583 7.742456,9.978199 0,6.708792 -6.485897,11.604226 -12.618817,11.604226 -7.957453,0.16773 -13.503191,-6.093722 -13.503191,-11.714505 0,-6.575695 4.494318,-7.975609 6.677912,-9.86792 l -0.257056,-57.96982 c 0,-3.007453 3.361467,-6.465418 6.011087,-6.465418 2.723003,0 6.011089,3.681459 6.011089,6.465418 z"
         id="path4036"
         sodipodi:nodetypes="ccccccccc" />
      <path
         d="m 53.162995,89.593155 a 6.5659914,6.5028572 0 0 1 -6.562954,6.502856 6.5659914,6.5028572 0 0 1 -6.569026,-6.496841 6.5659914,6.5028572 0 0 1 6.556879,-6.508866 6.5659914,6.5028572 0 0 1 6.57509,6.490821"
         sodipodi:arc-type="arc"
         sodipodi:open="true"
         sodipodi:end="6.2813353"
         sodipodi:start="0"
         sodipodi:ry="6.5028572"
         sodipodi:rx="6.5659914"
         sodipodi:cy="89.593155"
         sodipodi:cx="46.597004"
         sodipodi:type="arc"
         id="path10261"
         style="fill:#ffffff;fill-opacity:1;stroke:#ffffff;stroke-width:2.3;stroke-linecap:square" />
    </g>
  </g>
</svg>
